<?xml version="1.0" encoding="UTF-8" standalone="no"?>
<!-- Created with Inkscape (http://www.inkscape.org/) -->

<svg
   width="1024"
   height="1024"
   viewBox="0 0 1024 1024"
   version="1.1"
   id="svg1"
   xml:space="preserve"
   inkscape:version="1.4 (e7c3feb100, 2024-10-09)"
   sodipodi:docname="logo.svg"
   xmlns:inkscape="http://www.inkscape.org/namespaces/inkscape"
   xmlns:sodipodi="http://sodipodi.sourceforge.net/DTD/sodipodi-0.dtd"
   xmlns:xlink="http://www.w3.org/1999/xlink"
   xmlns="http://www.w3.org/2000/svg"
   xmlns:svg="http://www.w3.org/2000/svg"><sodipodi:namedview
     id="namedview1"
     pagecolor="#ffffff"
     bordercolor="#000000"
     borderopacity="0.25"
     inkscape:showpageshadow="2"
     inkscape:pageopacity="0.0"
     inkscape:pagecheckerboard="0"
     inkscape:deskcolor="#d1d1d1"
     inkscape:document-units="px"
     inkscape:zoom="0.51375727"
     inkscape:cx="461.30734"
     inkscape:cy="648.16601"
     inkscape:window-width="1920"
     inkscape:window-height="1057"
     inkscape:window-x="0"
     inkscape:window-y="0"
     inkscape:window-maximized="1"
     inkscape:current-layer="g27" /><defs
     id="defs1"><inkscape:path-effect
       effect="powerstroke"
       message=""
       id="path-effect19"
       is_visible="true"
       lpeversion="1.3"
       scale_width="1"
       interpolator_type="CentripetalCatmullRom"
       interpolator_beta="0.2"
       start_linecap_type="zerowidth"
       end_linecap_type="zerowidth"
       offset_points="0.31891481,5.2584362 | 0.49813566,10.028987 | 0.67171877,5.0431629"
       linejoin_type="round"
       miter_limit="4"
       not_jump="false"
       sort_points="true" /><inkscape:path-effect
       effect="powerstroke"
       message=""
       id="path-effect17"
       is_visible="true"
       lpeversion="1.3"
       scale_width="1"
       interpolator_type="CentripetalCatmullRom"
       interpolator_beta="0.2"
       start_linecap_type="zerowidth"
       end_linecap_type="zerowidth"
       offset_points="0.67352068,8.8961289 | 1,11.9 | 1.2398368,9.0360693"
       linejoin_type="round"
       miter_limit="4"
       not_jump="false"
       sort_points="true" /><inkscape:path-effect
       effect="powerstroke"
       message=""
       id="path-effect15"
       is_visible="true"
       lpeversion="1.3"
       scale_width="1"
       interpolator_type="CentripetalCatmullRom"
       interpolator_beta="0.2"
       start_linecap_type="zerowidth"
       end_linecap_type="zerowidth"
       offset_points="0.67352068,8.8961289 | 1,11.9 | 1.2398368,9.0360693"
       linejoin_type="round"
       miter_limit="4"
       not_jump="false"
       sort_points="true" /><inkscape:path-effect
       effect="powerstroke"
       message=""
       id="path-effect13"
       is_visible="true"
       lpeversion="1.3"
       scale_width="1"
       interpolator_type="CentripetalCatmullRom"
       interpolator_beta="0.2"
       start_linecap_type="zerowidth"
       end_linecap_type="zerowidth"
       offset_points="0.67352068,8.8961289 | 1,11.9 | 1.2398368,9.0360693"
       linejoin_type="round"
       miter_limit="4"
       not_jump="false"
       sort_points="true" /><inkscape:path-effect
       effect="powerstroke"
       message=""
       id="path-effect11"
       is_visible="true"
       lpeversion="1.3"
       scale_width="1"
       interpolator_type="CentripetalCatmullRom"
       interpolator_beta="0.2"
       start_linecap_type="zerowidth"
       end_linecap_type="zerowidth"
       offset_points="0.67352068,8.8961289 | 1,11.9 | 1.2398368,9.0360693"
       linejoin_type="round"
       miter_limit="4"
       not_jump="false"
       sort_points="true" /><inkscape:path-effect
       effect="fill_between_many"
       method="bsplinespiro"
       autoreverse="false"
       close="false"
       join="false"
       linkedpaths="#path17,0,1"
       id="path-effect20" /></defs><g
     inkscape:label="Layer 1"
     inkscape:groupmode="layer"
     id="layer1"><g
       id="g34"
       transform="translate(1.9464397,9.7322242)"><rect
         style="fill:#d7e3f4;stroke-width:75.3465;stroke-linecap:round;stroke-linejoin:round"
         id="rect1"
         width="529.80084"
         height="736.95477"
         x="306.88577"
         y="214.3965"
         ry="53.163414" /><path
         d="m 326.11395,444.36761 -54.68941,-24.98282 c -56.221,-25.68247 -84.3309,-38.52344 -87.6883,-62.32268 -3.35557,-23.80324 20.1058,-43.91499 67.0322,-84.14648 L 467.37063,87.228095 c 29.6744,-25.438717 44.50761,-38.159902 51.55529,-32.855722 7.0435,5.302756 -1.07678,23.078709 -17.31753,58.631017 l -80.77561,176.82429 c -4.29782,9.40829 -6.44765,14.11443 -4.86052,18.37106 1.58712,4.25663 6.29326,6.40645 15.70155,10.70428 l 54.68941,24.98282 c 56.22219,25.68302 84.33129,38.52362 87.68749,62.32232 3.35438,23.80268 -20.1046,43.91553 -67.02838,84.14339 L 290.41785,676.04093 c -29.67549,25.44111 -44.50833,38.1615 -51.55619,32.85772 -7.04387,-5.30196 1.07769,-23.08071 17.31716,-58.63022 l 80.77615,-176.82549 c 4.29783,-9.40828 6.44765,-14.11442 4.86053,-18.37105 -1.58713,-4.25663 -6.29327,-6.40645 -15.70155,-10.70428 z"
         fill="#222222"
         id="path1"
         style="fill:#ffd42a;stroke-width:43.884" /><g
         id="g27"><rect
           style="fill:#5b4019;stroke-width:80;stroke-linecap:round;stroke-linejoin:round;fill-opacity:1"
           id="rect2"
           width="306.24191"
           height="72.89138"
           x="359.40033"
           y="492.78705"
           ry="20.135303" /><path
           style="fill:#5b4019;fill-rule:nonzero;stroke:none;stroke-width:23.8;stroke-linecap:round;stroke-linejoin:round;stroke-dasharray:none;stroke-opacity:1;fill-opacity:1"
           d="m 55.502884,168.43288 c 0.962798,8.41845 3.071396,33.86837 5.77679,50.51068 2.649394,16.29782 4.736232,36.64139 10.074693,48.71162 A 27.090138,27.771711 62.118039 0 0 111.0308,279.3373 c 0.83462,-0.51568 1.65418,-1.02905 2.45799,-1.53998 17.97436,-11.42503 24.05503,-18.62228 42.03545,-33.0236 32.97474,-26.41094 115.80565,-94.56022 138.96678,-113.47226 -27.07055,12.69994 -124.3464,57.8961 -162.42332,76.19964 -20.76253,9.98053 -29.882,12.34909 -47.958551,23.61175 -0.808379,0.50366 -1.625781,1.02047 -2.451776,1.54985 l 39.676437,11.68212 C 115.5172,232.49761 101.27232,217.82453 90.488586,205.32056 79.47692,192.55229 61.333834,174.58083 55.502884,168.43288 Z"
           id="path12"
           transform="matrix(0.51176389,-0.11862458,0.11862458,0.51176389,638.25808,430.0896)"
           inkscape:original-d="M 55.502884,168.43288 96.344086,256 294.49102,131.30146"
           inkscape:path-effect="#path-effect13"
           sodipodi:nodetypes="ccc" /></g><use
         x="0"
         y="0"
         xlink:href="#g27"
         id="use33"
         transform="translate(0,238.43945)" /><use
         x="0"
         y="0"
         xlink:href="#use33"
         id="use34"
         transform="translate(0,-119.21973)" /></g></g></svg>
