<?xml version="1.0" encoding="UTF-8" standalone="no"?>
<!-- Created with Inkscape (http://www.inkscape.org/) -->

<svg
   width="1024"
   height="1024"
   viewBox="0 0 1024 1024"
   version="1.1"
   id="svg1"
   xml:space="preserve"
   inkscape:version="1.4 (e7c3feb100, 2024-10-09)"
   sodipodi:docname="logo.svg"
   xmlns:inkscape="http://www.inkscape.org/namespaces/inkscape"
   xmlns:sodipodi="http://sodipodi.sourceforge.net/DTD/sodipodi-0.dtd"
   xmlns:xlink="http://www.w3.org/1999/xlink"
   xmlns="http://www.w3.org/2000/svg"
   xmlns:svg="http://www.w3.org/2000/svg"><sodipodi:namedview
     id="namedview1"
     pagecolor="#ffffff"
     bordercolor="#000000"
     borderopacity="0.25"
     inkscape:showpageshadow="2"
     inkscape:pageopacity="0.0"
     inkscape:pagecheckerboard="0"
     inkscape:deskcolor="#d1d1d1"
     inkscape:document-units="px"
     inkscape:zoom="0.51375727"
     inkscape:cx="687.0949"
     inkscape:cy="539.16512"
     inkscape:window-width="1920"
     inkscape:window-height="1057"
     inkscape:window-x="0"
     inkscape:window-y="0"
     inkscape:window-maximized="1"
     inkscape:current-layer="g27" /><defs
     id="defs1"><inkscape:path-effect
       effect="powerstroke"
       message=""
       id="path-effect19"
       is_visible="true"
       lpeversion="1.3"
       scale_width="1"
       interpolator_type="CentripetalCatmullRom"
       interpolator_beta="0.2"
       start_linecap_type="zerowidth"
       end_linecap_type="zerowidth"
       offset_points="0.31891481,5.2584362 | 0.49813566,10.028987 | 0.67171877,5.0431629"
       linejoin_type="round"
       miter_limit="4"
       not_jump="false"
       sort_points="true" /><inkscape:path-effect
       effect="powerstroke"
       message=""
       id="path-effect17"
       is_visible="true"
       lpeversion="1.3"
       scale_width="1"
       interpolator_type="CentripetalCatmullRom"
       interpolator_beta="0.2"
       start_linecap_type="zerowidth"
       end_linecap_type="zerowidth"
       offset_points="0.67352068,8.8961289 | 1,11.9 | 1.2398368,9.0360693"
       linejoin_type="round"
       miter_limit="4"
       not_jump="false"
       sort_points="true" /><inkscape:path-effect
       effect="powerstroke"
       message=""
       id="path-effect15"
       is_visible="true"
       lpeversion="1.3"
       scale_width="1"
       interpolator_type="CentripetalCatmullRom"
       interpolator_beta="0.2"
       start_linecap_type="zerowidth"
       end_linecap_type="zerowidth"
       offset_points="0.67352068,8.8961289 | 1,11.9 | 1.2398368,9.0360693"
       linejoin_type="round"
       miter_limit="4"
       not_jump="false"
       sort_points="true" /><inkscape:path-effect
       effect="powerstroke"
       message=""
       id="path-effect13"
       is_visible="true"
       lpeversion="1.3"
       scale_width="1"
       interpolator_type="CentripetalCatmullRom"
       interpolator_beta="0.2"
       start_linecap_type="zerowidth"
       end_linecap_type="zerowidth"
       offset_points="0.67352068,8.8961289 | 1,11.9 | 1.2398368,9.0360693"
       linejoin_type="round"
       miter_limit="4"
       not_jump="false"
       sort_points="true" /><inkscape:path-effect
       effect="powerstroke"
       message=""
       id="path-effect11"
       is_visible="true"
       lpeversion="1.3"
       scale_width="1"
       interpolator_type="CentripetalCatmullRom"
       interpolator_beta="0.2"
       start_linecap_type="zerowidth"
       end_linecap_type="zerowidth"
       offset_points="0.67352068,8.8961289 | 1,11.9 | 1.2398368,9.0360693"
       linejoin_type="round"
       miter_limit="4"
       not_jump="false"
       sort_points="true" /><inkscape:path-effect
       effect="fill_between_many"
       method="bsplinespiro"
       autoreverse="false"
       close="false"
       join="false"
       linkedpaths="#path17,0,1"
       id="path-effect20" /></defs><g
     inkscape:label="Layer 1"
     inkscape:groupmode="layer"
     id="layer1"><g
       id="g34"
       transform="translate(-12.545601,-55.629316)"><rect
         style="fill:#3c332c;stroke-width:75.3465;stroke-linecap:round;stroke-linejoin:round;fill-opacity:1"
         id="rect1"
         width="529.80084"
         height="736.95477"
         x="306.88577"
         y="214.3965"
         ry="33.698963" /><path
         d="m 446.25114,380.00071 27.80756,-40.58323 c 28.58632,-41.71978 42.87917,-62.57923 35.19515,-80.68185 -7.68699,-18.10465 -32.61936,-22.31023 -82.49,-30.72547 L 196.57684,189.17595 c -31.53534,-5.32 -47.30099,-7.98296 -50.00519,-1.29144 -2.70186,6.68876 10.48909,15.72718 36.8713,33.80423 l 131.21558,89.90867 c 6.98158,4.78376 10.47386,7.17666 11.15642,10.83056 0.68256,3.65389 -1.71034,7.14616 -6.4941,14.12775 l -27.80756,40.58324 c -28.58693,41.72067 -42.87938,62.57952 -35.19474,80.68125 7.68759,18.10375 32.61873,22.31112 82.48602,30.72492 l 230.18938,38.83454 c 31.53713,5.32122 47.30217,7.98377 50.00668,1.29246 2.70246,-6.68837 -10.49058,-15.72821 -36.87071,-33.80382 L 450.91346,404.95902 c -6.98158,-4.78375 -10.47385,-7.17666 -11.15642,-10.83055 -0.68257,-3.6539 1.71033,-7.14618 6.4941,-14.12776 z"
         fill="#222222"
         id="path1"
         style="fill:#ffb77e;stroke-width:35.907;fill-opacity:1" /><g
         id="g27"
         transform="translate(0,77.857779)"><rect
           style="fill:#e3c0a6;fill-opacity:1;stroke-width:80;stroke-linecap:round;stroke-linejoin:round"
           id="rect2"
           width="306.24191"
           height="72.89138"
           x="359.40033"
           y="492.78705"
           ry="20.135303" /><path
           style="fill:#e3c0a6;fill-opacity:1;fill-rule:nonzero;stroke:none;stroke-width:23.8;stroke-linecap:round;stroke-linejoin:round;stroke-dasharray:none;stroke-opacity:1"
           d="m 55.502884,168.43288 c 3.240841,10.45642 13.787279,45.7214 19.445045,62.73854 3.935885,11.83815 6.385675,21.12229 10.611468,29.85854 a 12.050098,11.836732 60.894462 0 0 17.122973,5.04159 c 17.00218,-10.83873 26.36023,-18.53172 45.9975,-32.33118 34.96004,-24.56702 121.50929,-85.36576 145.81115,-102.43891 -25.90614,14.52393 -118.16352,66.25242 -155.43687,87.14357 -16.17751,9.06725 -26.41298,14.1786 -38.13173,20.94229 -2.912662,-4.82184 -6.227607,-9.85279 -9.849793,-15.73644 -9.401427,-15.2711 -29.641452,-46.015 -35.569743,-55.218 z"
           id="path12"
           transform="matrix(0.51176389,-0.11862458,0.11862458,0.51176389,638.25808,430.0896)"
           inkscape:original-d="M 55.502884,168.43288 96.344086,256 294.49102,131.30146"
           inkscape:path-effect="#path-effect13"
           sodipodi:nodetypes="ccc" /></g><use
         x="0"
         y="0"
         xlink:href="#g27"
         id="use33"
         transform="translate(0,238.43945)" /><use
         x="0"
         y="0"
         xlink:href="#use33"
         id="use34"
         transform="translate(0,-119.21973)" /></g></g></svg>
